<?xml version="1.0" encoding="UTF-8" standalone="no"?>
<!DOCTYPE svg PUBLIC "-//W3C//DTD SVG 1.1//EN"
 "http://www.w3.org/Graphics/SVG/1.1/DTD/svg11.dtd">
<!-- Generated by graphviz version 2.36.0 (20140111.2315)
 -->
<!-- Title: G Pages: 1 -->
<svg width="572pt" height="1016pt"
 viewBox="0.00 0.00 572.00 1016.00" xmlns="http://www.w3.org/2000/svg" xmlns:xlink="http://www.w3.org/1999/xlink">
<g id="graph0" class="graph" transform="scale(1 1) rotate(0) translate(4 1012)">
<title>G</title>
<polygon fill="white" stroke="none" points="-4,4 -4,-1012 568,-1012 568,4 -4,4"/>
<!-- PROBLEM -->
<g id="node1" class="node"><title>PROBLEM</title>
<path fill="beige" stroke="black" d="M414,-1008C414,-1008 200,-1008 200,-1008 194,-1008 188,-1002 188,-996 188,-996 188,-984 188,-984 188,-978 194,-972 200,-972 200,-972 414,-972 414,-972 420,-972 426,-978 426,-984 426,-984 426,-996 426,-996 426,-1002 420,-1008 414,-1008"/>
<text text-anchor="middle" x="307" y="-986.3" font-family="Times,serif" font-size="14.00">My MIDI device doesnt work in Ardour</text>
</g>
<!-- START -->
<g id="node2" class="node"><title>START</title>
<path fill="beige" stroke="black" d="M349,-934C349,-934 265,-934 265,-934 259,-934 253,-928 253,-922 253,-922 253,-910 253,-910 253,-904 259,-898 265,-898 265,-898 349,-898 349,-898 355,-898 361,-904 361,-910 361,-910 361,-922 361,-922 361,-928 355,-934 349,-934"/>
<text text-anchor="middle" x="307" y="-912.3" font-family="Times,serif" font-size="14.00">What is my OS?</text>
</g>
<!-- PROBLEM&#45;&gt;START -->
<g id="edge1" class="edge"><title>PROBLEM&#45;&gt;START</title>
<path fill="none" stroke="black" d="M307,-971.937C307,-963.807 307,-953.876 307,-944.705"/>
<polygon fill="black" stroke="black" points="310.5,-944.441 307,-934.441 303.5,-944.441 310.5,-944.441"/>
</g>
<!-- QL -->
<g id="node3" class="node"><title>QL</title>
<path fill="beige" stroke="black" d="M180.25,-846C180.25,-846 11.75,-846 11.75,-846 5.75,-846 -0.25,-840 -0.25,-834 -0.25,-834 -0.25,-822 -0.25,-822 -0.25,-816 5.75,-810 11.75,-810 11.75,-810 180.25,-810 180.25,-810 186.25,-810 192.25,-816 192.25,-822 192.25,-822 192.25,-834 192.25,-834 192.25,-840 186.25,-846 180.25,-846"/>
<text text-anchor="middle" x="96" y="-824.3" font-family="Times,serif" font-size="14.00">What sound system am I using?</text>
</g>
<!-- START&#45;&gt;QL -->
<g id="edge2" class="edge"><title>START&#45;&gt;QL</title>
<path fill="none" stroke="black" d="M265.061,-897.906C231.191,-884.102 183.387,-864.618 147.25,-849.889"/>
<polygon fill="black" stroke="black" points="148.441,-846.595 137.86,-846.061 145.799,-853.077 148.441,-846.595"/>
<text text-anchor="middle" x="237.5" y="-868.3" font-family="Times,serif" font-size="14.00">Linux</text>
</g>
<!-- QW -->
<g id="node13" class="node"><title>QW</title>
<path fill="beige" stroke="black" d="M551.25,-792C551.25,-792 382.75,-792 382.75,-792 376.75,-792 370.75,-786 370.75,-780 370.75,-780 370.75,-768 370.75,-768 370.75,-762 376.75,-756 382.75,-756 382.75,-756 551.25,-756 551.25,-756 557.25,-756 563.25,-762 563.25,-768 563.25,-768 563.25,-780 563.25,-780 563.25,-786 557.25,-792 551.25,-792"/>
<text text-anchor="middle" x="467" y="-770.3" font-family="Times,serif" font-size="14.00">What sound system am I using?</text>
</g>
<!-- START&#45;&gt;QW -->
<g id="edge17" class="edge"><title>START&#45;&gt;QW</title>
<path fill="none" stroke="black" d="M338.803,-897.839C360.701,-885.163 389.744,-866.59 412,-846 426.596,-832.496 440.299,-814.826 450.377,-800.493"/>
<polygon fill="black" stroke="black" points="453.387,-802.292 456.158,-792.066 447.614,-798.332 453.387,-802.292"/>
<text text-anchor="middle" x="416.5" y="-868.3" font-family="Times,serif" font-size="14.00">Windows</text>
</g>
<!-- QO -->
<g id="node15" class="node"><title>QO</title>
<path fill="beige" stroke="black" d="M391.25,-846C391.25,-846 222.75,-846 222.75,-846 216.75,-846 210.75,-840 210.75,-834 210.75,-834 210.75,-822 210.75,-822 210.75,-816 216.75,-810 222.75,-810 222.75,-810 391.25,-810 391.25,-810 397.25,-810 403.25,-816 403.25,-822 403.25,-822 403.25,-834 403.25,-834 403.25,-840 397.25,-846 391.25,-846"/>
<text text-anchor="middle" x="307" y="-824.3" font-family="Times,serif" font-size="14.00">What sound system am I using?</text>
</g>
<!-- START&#45;&gt;QO -->
<g id="edge20" class="edge"><title>START&#45;&gt;QO</title>
<path fill="none" stroke="black" d="M307,-897.597C307,-885.746 307,-869.817 307,-856.292"/>
<polygon fill="black" stroke="black" points="310.5,-856.084 307,-846.084 303.5,-856.084 310.5,-856.084"/>
<text text-anchor="middle" x="321.5" y="-868.3" font-family="Times,serif" font-size="14.00">Os X</text>
</g>
<!-- QLJYY -->
<g id="node4" class="node"><title>QLJYY</title>
<path fill="beige" stroke="black" d="M366,-360C366,-360 154,-360 154,-360 148,-360 142,-354 142,-348 142,-348 142,-336 142,-336 142,-330 148,-324 154,-324 154,-324 366,-324 366,-324 372,-324 378,-330 378,-336 378,-336 378,-348 378,-348 378,-354 372,-360 366,-360"/>
<text text-anchor="middle" x="260" y="-338.3" font-family="Times,serif" font-size="14.00">In Ardour, have I created a MIDI track?</text>
</g>
<!-- QL&#45;&gt;QLJYY -->
<g id="edge3" class="edge"><title>QL&#45;&gt;QLJYY</title>
<path fill="none" stroke="black" d="M79.2508,-809.872C61.8078,-790.153 37,-755.962 37,-721 37,-721 37,-721 37,-415 37,-390.921 84.6778,-373.716 135.942,-362.176"/>
<polygon fill="black" stroke="black" points="136.858,-365.559 145.887,-360.015 135.372,-358.719 136.858,-365.559"/>
<text text-anchor="middle" x="49.5" y="-554.3" font-family="Times,serif" font-size="14.00">Alsa</text>
</g>
<!-- QLJ -->
<g id="node5" class="node"><title>QLJ</title>
<path fill="beige" stroke="black" d="M266.5,-738C266.5,-738 77.5,-738 77.5,-738 71.5,-738 65.5,-732 65.5,-726 65.5,-726 65.5,-714 65.5,-714 65.5,-708 71.5,-702 77.5,-702 77.5,-702 266.5,-702 266.5,-702 272.5,-702 278.5,-708 278.5,-714 278.5,-714 278.5,-726 278.5,-726 278.5,-732 272.5,-738 266.5,-738"/>
<text text-anchor="middle" x="172" y="-716.3" font-family="Times,serif" font-size="14.00">Is a2jmidid installed on the system?</text>
</g>
<!-- QL&#45;&gt;QLJ -->
<g id="edge4" class="edge"><title>QL&#45;&gt;QLJ</title>
<path fill="none" stroke="black" d="M108.211,-809.969C120.492,-792.84 139.578,-766.221 153.675,-746.559"/>
<polygon fill="black" stroke="black" points="156.585,-748.507 159.567,-738.341 150.896,-744.428 156.585,-748.507"/>
<text text-anchor="middle" x="158.5" y="-770.3" font-family="Times,serif" font-size="14.00">Jack</text>
</g>
<!-- QLJYYN -->
<g id="node9" class="node"><title>QLJYYN</title>
<path fill="beige" stroke="black" d="M237,-272C237,-272 133,-272 133,-272 127,-272 121,-266 121,-260 121,-260 121,-248 121,-248 121,-242 127,-236 133,-236 133,-236 237,-236 237,-236 243,-236 249,-242 249,-248 249,-248 249,-260 249,-260 249,-266 243,-272 237,-272"/>
<text text-anchor="middle" x="185" y="-250.3" font-family="Times,serif" font-size="14.00">Create a MIDI track</text>
</g>
<!-- QLJYY&#45;&gt;QLJYYN -->
<g id="edge11" class="edge"><title>QLJYY&#45;&gt;QLJYYN</title>
<path fill="none" stroke="black" d="M244.823,-323.597C233.874,-311.042 218.933,-293.91 206.722,-279.908"/>
<polygon fill="black" stroke="black" points="209.109,-277.32 199.899,-272.084 203.834,-281.921 209.109,-277.32"/>
<text text-anchor="middle" x="237" y="-294.3" font-family="Times,serif" font-size="14.00">no</text>
</g>
<!-- QLJYYY -->
<g id="node10" class="node"><title>QLJYYY</title>
<path fill="beige" stroke="black" d="M353.25,-198C353.25,-198 154.75,-198 154.75,-198 148.75,-198 142.75,-192 142.75,-186 142.75,-186 142.75,-174 142.75,-174 142.75,-168 148.75,-162 154.75,-162 154.75,-162 353.25,-162 353.25,-162 359.25,-162 365.25,-168 365.25,-174 365.25,-174 365.25,-186 365.25,-186 365.25,-192 359.25,-198 353.25,-198"/>
<text text-anchor="middle" x="254" y="-176.3" font-family="Times,serif" font-size="14.00">Is there a working synth on the track?</text>
</g>
<!-- QLJYY&#45;&gt;QLJYYY -->
<g id="edge13" class="edge"><title>QLJYY&#45;&gt;QLJYYY</title>
<path fill="none" stroke="black" d="M259.955,-323.895C259.836,-303.106 259.42,-266.963 258,-236 257.588,-227.025 256.941,-217.239 256.286,-208.443"/>
<polygon fill="black" stroke="black" points="259.764,-208.024 255.499,-198.326 252.785,-208.567 259.764,-208.024"/>
<text text-anchor="middle" x="269.5" y="-250.3" font-family="Times,serif" font-size="14.00">yes</text>
</g>
<!-- QLJN -->
<g id="node6" class="node"><title>QLJN</title>
<path fill="beige" stroke="black" d="M175.25,-630C175.25,-630 96.75,-630 96.75,-630 90.75,-630 84.75,-624 84.75,-618 84.75,-618 84.75,-606 84.75,-606 84.75,-600 90.75,-594 96.75,-594 96.75,-594 175.25,-594 175.25,-594 181.25,-594 187.25,-600 187.25,-606 187.25,-606 187.25,-618 187.25,-618 187.25,-624 181.25,-630 175.25,-630"/>
<text text-anchor="middle" x="136" y="-608.3" font-family="Times,serif" font-size="14.00">Install a2jmidid</text>
</g>
<!-- QLJ&#45;&gt;QLJN -->
<g id="edge5" class="edge"><title>QLJ&#45;&gt;QLJN</title>
<path fill="none" stroke="black" d="M166.216,-701.969C160.529,-685.224 151.762,-659.41 145.133,-639.892"/>
<polygon fill="black" stroke="black" points="148.419,-638.684 141.889,-630.341 141.791,-640.935 148.419,-638.684"/>
<text text-anchor="middle" x="167" y="-662.3" font-family="Times,serif" font-size="14.00">no</text>
</g>
<!-- QLJY -->
<g id="node7" class="node"><title>QLJY</title>
<path fill="beige" stroke="black" d="M248.25,-522C248.25,-522 187.75,-522 187.75,-522 181.75,-522 175.75,-516 175.75,-510 175.75,-510 175.75,-498 175.75,-498 175.75,-492 181.75,-486 187.75,-486 187.75,-486 248.25,-486 248.25,-486 254.25,-486 260.25,-492 260.25,-498 260.25,-498 260.25,-510 260.25,-510 260.25,-516 254.25,-522 248.25,-522"/>
<text text-anchor="middle" x="218" y="-500.3" font-family="Times,serif" font-size="14.00">Is is started?</text>
</g>
<!-- QLJ&#45;&gt;QLJY -->
<g id="edge7" class="edge"><title>QLJ&#45;&gt;QLJY</title>
<path fill="none" stroke="black" d="M177.152,-701.718C182.357,-683.868 190.407,-655.151 196,-630 203.45,-596.499 209.978,-557.493 213.948,-532.081"/>
<polygon fill="black" stroke="black" points="217.426,-532.495 215.489,-522.078 210.507,-531.429 217.426,-532.495"/>
<text text-anchor="middle" x="212.5" y="-608.3" font-family="Times,serif" font-size="14.00">yes</text>
</g>
<!-- QLJN&#45;&gt;QLJY -->
<g id="edge6" class="edge"><title>QLJN&#45;&gt;QLJY</title>
<path fill="none" stroke="black" d="M149.175,-593.969C162.485,-576.764 183.203,-549.982 198.432,-530.295"/>
<polygon fill="black" stroke="black" points="201.235,-532.392 204.586,-522.341 195.698,-528.109 201.235,-532.392"/>
</g>
<!-- QLJY&#45;&gt;QLJYY -->
<g id="edge10" class="edge"><title>QLJY&#45;&gt;QLJYY</title>
<path fill="none" stroke="black" d="M222.495,-485.877C229.751,-458.235 244.11,-403.535 252.803,-370.417"/>
<polygon fill="black" stroke="black" points="256.257,-371.046 255.41,-360.485 249.486,-369.268 256.257,-371.046"/>
<text text-anchor="middle" x="255.5" y="-412.3" font-family="Times,serif" font-size="14.00">yes</text>
</g>
<!-- QLJYN -->
<g id="node8" class="node"><title>QLJYN</title>
<path fill="beige" stroke="black" d="M212,-434C212,-434 104,-434 104,-434 98,-434 92,-428 92,-422 92,-422 92,-410 92,-410 92,-404 98,-398 104,-398 104,-398 212,-398 212,-398 218,-398 224,-404 224,-410 224,-410 224,-422 224,-422 224,-428 218,-434 212,-434"/>
<text text-anchor="middle" x="158" y="-412.3" font-family="Times,serif" font-size="14.00">Start it : &#39;a2jmidid &#45;e&#39;</text>
</g>
<!-- QLJY&#45;&gt;QLJYN -->
<g id="edge8" class="edge"><title>QLJY&#45;&gt;QLJYN</title>
<path fill="none" stroke="black" d="M205.858,-485.597C197.181,-473.159 185.37,-456.23 175.652,-442.302"/>
<polygon fill="black" stroke="black" points="178.511,-440.283 169.919,-434.084 172.77,-444.288 178.511,-440.283"/>
<text text-anchor="middle" x="201" y="-456.3" font-family="Times,serif" font-size="14.00">no</text>
</g>
<!-- QLJYN&#45;&gt;QLJYY -->
<g id="edge9" class="edge"><title>QLJYN&#45;&gt;QLJYY</title>
<path fill="none" stroke="black" d="M182.173,-397.937C195.666,-388.412 212.662,-376.415 227.327,-366.063"/>
<polygon fill="black" stroke="black" points="229.496,-368.816 235.647,-360.19 225.459,-363.098 229.496,-368.816"/>
</g>
<!-- QLJYYN&#45;&gt;QLJYYY -->
<g id="edge12" class="edge"><title>QLJYYN&#45;&gt;QLJYYY</title>
<path fill="none" stroke="black" d="M201.352,-235.937C209.99,-226.924 220.75,-215.696 230.287,-205.744"/>
<polygon fill="black" stroke="black" points="232.894,-208.082 237.286,-198.441 227.84,-203.239 232.894,-208.082"/>
</g>
<!-- QLJYYYN -->
<g id="node11" class="node"><title>QLJYYYN</title>
<path fill="beige" stroke="black" d="M243,-110C243,-110 47,-110 47,-110 41,-110 35,-104 35,-98 35,-98 35,-86 35,-86 35,-80 41,-74 47,-74 47,-74 243,-74 243,-74 249,-74 255,-80 255,-86 255,-86 255,-98 255,-98 255,-104 249,-110 243,-110"/>
<text text-anchor="middle" x="145" y="-88.3" font-family="Times,serif" font-size="14.00">Insert a reasonable synth on the track</text>
</g>
<!-- QLJYYY&#45;&gt;QLJYYYN -->
<g id="edge14" class="edge"><title>QLJYYY&#45;&gt;QLJYYYN</title>
<path fill="none" stroke="black" d="M232.204,-161.803C215.718,-148.796 192.897,-130.79 174.735,-116.461"/>
<polygon fill="black" stroke="black" points="176.777,-113.613 166.758,-110.167 172.441,-119.109 176.777,-113.613"/>
<text text-anchor="middle" x="217" y="-132.3" font-family="Times,serif" font-size="14.00">no</text>
</g>
<!-- QLJYYYY -->
<g id="node12" class="node"><title>QLJYYYY</title>
<path fill="beige" stroke="black" d="M346,-36C346,-36 150,-36 150,-36 144,-36 138,-30 138,-24 138,-24 138,-12 138,-12 138,-6 144,-0 150,-0 150,-0 346,-0 346,-0 352,-0 358,-6 358,-12 358,-12 358,-24 358,-24 358,-30 352,-36 346,-36"/>
<text text-anchor="middle" x="248" y="-14.3" font-family="Times,serif" font-size="14.00">Insert a reasonable synth on the track</text>
</g>
<!-- QLJYYY&#45;&gt;QLJYYYY -->
<g id="edge16" class="edge"><title>QLJYYY&#45;&gt;QLJYYYY</title>
<path fill="none" stroke="black" d="M258.114,-161.846C262.541,-141.009 268.392,-104.818 264,-74 262.669,-64.6596 260.127,-54.6882 257.454,-45.8365"/>
<polygon fill="black" stroke="black" points="260.707,-44.5186 254.322,-36.0645 254.042,-46.6556 260.707,-44.5186"/>
<text text-anchor="middle" x="275.5" y="-88.3" font-family="Times,serif" font-size="14.00">yes</text>
</g>
<!-- QLJYYYN&#45;&gt;QLJYYYY -->
<g id="edge15" class="edge"><title>QLJYYYN&#45;&gt;QLJYYYY</title>
<path fill="none" stroke="black" d="M169.41,-73.937C183.035,-64.4122 200.198,-52.4149 215.006,-42.0635"/>
<polygon fill="black" stroke="black" points="217.218,-44.788 223.409,-36.19 213.207,-39.0507 217.218,-44.788"/>
</g>
<!-- QWA -->
<g id="node14" class="node"><title>QWA</title>
<path fill="beige" stroke="black" d="M368,-576C368,-576 338,-576 338,-576 332,-576 326,-570 326,-564 326,-564 326,-552 326,-552 326,-546 332,-540 338,-540 338,-540 368,-540 368,-540 374,-540 380,-546 380,-552 380,-552 380,-564 380,-564 380,-570 374,-576 368,-576"/>
<text text-anchor="middle" x="353" y="-554.3" font-family="Times,serif" font-size="14.00">TODO</text>
</g>
<!-- QW&#45;&gt;QWA -->
<g id="edge18" class="edge"><title>QW&#45;&gt;QWA</title>
<path fill="none" stroke="black" d="M457.864,-755.849C437.977,-718.519 390.66,-629.695 366.988,-585.259"/>
<polygon fill="black" stroke="black" points="369.971,-583.413 362.18,-576.232 363.793,-586.704 369.971,-583.413"/>
<text text-anchor="middle" x="436" y="-662.3" font-family="Times,serif" font-size="14.00">ASIO</text>
</g>
<!-- QWA&#45;&gt;QLJYY -->
<g id="edge19" class="edge"><title>QWA&#45;&gt;QLJYY</title>
<path fill="none" stroke="black" d="M354.451,-539.928C356.455,-505.847 356.437,-428.337 321,-378 317.837,-373.507 313.901,-369.513 309.562,-365.98"/>
<polygon fill="black" stroke="black" points="311.559,-363.104 301.396,-360.111 307.474,-368.789 311.559,-363.104"/>
</g>
<!-- QO&#45;&gt;QLJ -->
<g id="edge23" class="edge"><title>QO&#45;&gt;QLJ</title>
<path fill="none" stroke="black" d="M283.437,-809.731C275.902,-804.135 267.558,-797.86 260,-792 240.001,-776.496 217.83,-758.603 200.745,-744.659"/>
<polygon fill="black" stroke="black" points="202.755,-741.781 192.799,-738.158 198.323,-747.199 202.755,-741.781"/>
<text text-anchor="middle" x="272.5" y="-770.3" font-family="Times,serif" font-size="14.00">Jack</text>
</g>
<!-- QOC -->
<g id="node16" class="node"><title>QOC</title>
<path fill="beige" stroke="black" d="M322,-684C322,-684 292,-684 292,-684 286,-684 280,-678 280,-672 280,-672 280,-660 280,-660 280,-654 286,-648 292,-648 292,-648 322,-648 322,-648 328,-648 334,-654 334,-660 334,-660 334,-672 334,-672 334,-678 328,-684 322,-684"/>
<text text-anchor="middle" x="307" y="-662.3" font-family="Times,serif" font-size="14.00">TODO</text>
</g>
<!-- QO&#45;&gt;QOC -->
<g id="edge21" class="edge"><title>QO&#45;&gt;QOC</title>
<path fill="none" stroke="black" d="M304.657,-809.944C303.98,-804.249 303.334,-797.862 303,-792 301.088,-758.427 302.953,-719.726 304.725,-694.389"/>
<polygon fill="black" stroke="black" points="308.217,-694.635 305.468,-684.403 301.236,-694.116 308.217,-694.635"/>
<text text-anchor="middle" x="332" y="-770.3" font-family="Times,serif" font-size="14.00">CoreMIDI</text>
</g>
<!-- QOC&#45;&gt;QLJYY -->
<g id="edge22" class="edge"><title>QOC&#45;&gt;QLJYY</title>
<path fill="none" stroke="black" d="M307,-647.742C307,-626.763 307,-590.285 307,-559 307,-559 307,-559 307,-415 307,-397.323 296.943,-380.593 286.133,-367.717"/>
<polygon fill="black" stroke="black" points="288.68,-365.314 279.388,-360.223 283.477,-369.998 288.68,-365.314"/>
</g>
</g>
</svg>
