<?xml version="1.0" encoding="UTF-8" standalone="no"?>
<!DOCTYPE svg PUBLIC "-//W3C//DTD SVG 1.1//EN"
 "http://www.w3.org/Graphics/SVG/1.1/DTD/svg11.dtd">
<!-- Generated by graphviz version 2.36.0 (20140111.2315)
 -->
<!-- Title: G Pages: 1 -->
<svg width="1824pt" height="928pt"
 viewBox="0.00 0.00 1824.00 928.00" xmlns="http://www.w3.org/2000/svg" xmlns:xlink="http://www.w3.org/1999/xlink">
<g id="graph0" class="graph" transform="scale(1 1) rotate(0) translate(4 924)">
<title>G</title>
<polygon fill="white" stroke="none" points="-4,4 -4,-924 1820,-924 1820,4 -4,4"/>
<!-- PROBLEM -->
<g id="node1" class="node"><title>PROBLEM</title>
<path fill="beige" stroke="black" d="M582,-920C582,-920 502,-920 502,-920 496,-920 490,-914 490,-908 490,-908 490,-896 490,-896 490,-890 496,-884 502,-884 502,-884 582,-884 582,-884 588,-884 594,-890 594,-896 594,-896 594,-908 594,-908 594,-914 588,-920 582,-920"/>
<text text-anchor="middle" x="542" y="-898.3" font-family="Times,serif" font-size="14.00">I have no sound</text>
</g>
<!-- START -->
<g id="node2" class="node"><title>START</title>
<path fill="beige" stroke="black" d="M612.25,-846C612.25,-846 471.75,-846 471.75,-846 465.75,-846 459.75,-840 459.75,-834 459.75,-834 459.75,-822 459.75,-822 459.75,-816 465.75,-810 471.75,-810 471.75,-810 612.25,-810 612.25,-810 618.25,-810 624.25,-816 624.25,-822 624.25,-822 624.25,-834 624.25,-834 624.25,-840 618.25,-846 612.25,-846"/>
<text text-anchor="middle" x="542" y="-824.3" font-family="Times,serif" font-size="14.00">Is the main meter moving?</text>
</g>
<!-- PROBLEM&#45;&gt;START -->
<g id="edge1" class="edge"><title>PROBLEM&#45;&gt;START</title>
<path fill="none" stroke="black" d="M542,-883.937C542,-875.807 542,-865.876 542,-856.705"/>
<polygon fill="black" stroke="black" points="545.5,-856.441 542,-846.441 538.5,-856.441 545.5,-856.441"/>
</g>
<!-- QY -->
<g id="node3" class="node"><title>QY</title>
<path fill="beige" stroke="black" d="M513.25,-758C513.25,-758 258.75,-758 258.75,-758 252.75,-758 246.75,-752 246.75,-746 246.75,-746 246.75,-734 246.75,-734 246.75,-728 252.75,-722 258.75,-722 258.75,-722 513.25,-722 513.25,-722 519.25,-722 525.25,-728 525.25,-734 525.25,-734 525.25,-746 525.25,-746 525.25,-752 519.25,-758 513.25,-758"/>
<text text-anchor="middle" x="386" y="-736.3" font-family="Times,serif" font-size="14.00">Is the master connected to the system&#39;s outputs?</text>
</g>
<!-- START&#45;&gt;QY -->
<g id="edge2" class="edge"><title>START&#45;&gt;QY</title>
<path fill="none" stroke="black" d="M510.806,-809.803C486.388,-796.342 452.258,-777.527 425.86,-762.974"/>
<polygon fill="black" stroke="black" points="427.321,-759.783 416.874,-758.02 423.941,-765.913 427.321,-759.783"/>
<text text-anchor="middle" x="487.5" y="-780.3" font-family="Times,serif" font-size="14.00">yes</text>
</g>
<!-- QN -->
<g id="node14" class="node"><title>QN</title>
<path fill="beige" stroke="black" d="M707.25,-758C707.25,-758 580.75,-758 580.75,-758 574.75,-758 568.75,-752 568.75,-746 568.75,-746 568.75,-734 568.75,-734 568.75,-728 574.75,-722 580.75,-722 580.75,-722 707.25,-722 707.25,-722 713.25,-722 719.25,-728 719.25,-734 719.25,-734 719.25,-746 719.25,-746 719.25,-752 713.25,-758 707.25,-758"/>
<text text-anchor="middle" x="644" y="-736.3" font-family="Times,serif" font-size="14.00">Is the playhead moving?</text>
</g>
<!-- START&#45;&gt;QN -->
<g id="edge13" class="edge"><title>START&#45;&gt;QN</title>
<path fill="none" stroke="black" d="M562.641,-809.597C577.949,-796.69 598.995,-778.946 615.846,-764.738"/>
<polygon fill="black" stroke="black" points="618.348,-767.206 623.738,-758.084 613.836,-761.854 618.348,-767.206"/>
<text text-anchor="middle" x="610" y="-780.3" font-family="Times,serif" font-size="14.00">no</text>
</g>
<!-- AYN -->
<g id="node4" class="node"><title>AYN</title>
<path fill="beige" stroke="black" d="M243.5,-670C243.5,-670 18.5,-670 18.5,-670 12.5,-670 6.5,-664 6.5,-658 6.5,-658 6.5,-646 6.5,-646 6.5,-640 12.5,-634 18.5,-634 18.5,-634 243.5,-634 243.5,-634 249.5,-634 255.5,-640 255.5,-646 255.5,-646 255.5,-658 255.5,-658 255.5,-664 249.5,-670 243.5,-670"/>
<text text-anchor="middle" x="131" y="-648.3" font-family="Times,serif" font-size="14.00">Connect the master to the system&#39;s outputs</text>
</g>
<!-- QY&#45;&gt;AYN -->
<g id="edge3" class="edge"><title>QY&#45;&gt;AYN</title>
<path fill="none" stroke="black" d="M335.315,-721.906C293.86,-707.925 235.132,-688.119 191.271,-673.327"/>
<polygon fill="black" stroke="black" points="192.183,-669.941 181.589,-670.061 189.946,-676.574 192.183,-669.941"/>
<text text-anchor="middle" x="289" y="-692.3" font-family="Times,serif" font-size="14.00">no</text>
</g>
<!-- QYY -->
<g id="node5" class="node"><title>QYY</title>
<path fill="beige" stroke="black" d="M485.5,-670C485.5,-670 286.5,-670 286.5,-670 280.5,-670 274.5,-664 274.5,-658 274.5,-658 274.5,-646 274.5,-646 274.5,-640 280.5,-634 286.5,-634 286.5,-634 485.5,-634 485.5,-634 491.5,-634 497.5,-640 497.5,-646 497.5,-646 497.5,-658 497.5,-658 497.5,-664 491.5,-670 485.5,-670"/>
<text text-anchor="middle" x="386" y="-648.3" font-family="Times,serif" font-size="14.00">Do sound work when Ardour is OFF?</text>
</g>
<!-- QY&#45;&gt;QYY -->
<g id="edge4" class="edge"><title>QY&#45;&gt;QYY</title>
<path fill="none" stroke="black" d="M386,-721.597C386,-709.746 386,-693.817 386,-680.292"/>
<polygon fill="black" stroke="black" points="389.5,-680.084 386,-670.084 382.5,-680.084 389.5,-680.084"/>
<text text-anchor="middle" x="395.5" y="-692.3" font-family="Times,serif" font-size="14.00">yes</text>
</g>
<!-- AYYN -->
<g id="node6" class="node"><title>AYYN</title>
<path fill="beige" stroke="black" d="M295.25,-582C295.25,-582 178.75,-582 178.75,-582 172.75,-582 166.75,-576 166.75,-570 166.75,-570 166.75,-558 166.75,-558 166.75,-552 172.75,-546 178.75,-546 178.75,-546 295.25,-546 295.25,-546 301.25,-546 307.25,-552 307.25,-558 307.25,-558 307.25,-570 307.25,-570 307.25,-576 301.25,-582 295.25,-582"/>
<text text-anchor="middle" x="237" y="-560.3" font-family="Times,serif" font-size="14.00">Fix your sound system</text>
</g>
<!-- QYY&#45;&gt;AYYN -->
<g id="edge5" class="edge"><title>QYY&#45;&gt;AYYN</title>
<path fill="none" stroke="black" d="M356.206,-633.803C332.985,-620.401 300.57,-601.691 275.402,-587.165"/>
<polygon fill="black" stroke="black" points="276.899,-583.988 266.488,-582.02 273.4,-590.05 276.899,-583.988"/>
<text text-anchor="middle" x="332" y="-604.3" font-family="Times,serif" font-size="14.00">no</text>
</g>
<!-- QYYY -->
<g id="node7" class="node"><title>QYYY</title>
<path fill="beige" stroke="black" d="M433.5,-582C433.5,-582 338.5,-582 338.5,-582 332.5,-582 326.5,-576 326.5,-570 326.5,-570 326.5,-558 326.5,-558 326.5,-552 332.5,-546 338.5,-546 338.5,-546 433.5,-546 433.5,-546 439.5,-546 445.5,-552 445.5,-558 445.5,-558 445.5,-570 445.5,-570 445.5,-576 439.5,-582 433.5,-582"/>
<text text-anchor="middle" x="386" y="-560.3" font-family="Times,serif" font-size="14.00">What OS am I on?</text>
</g>
<!-- QYY&#45;&gt;QYYY -->
<g id="edge6" class="edge"><title>QYY&#45;&gt;QYYY</title>
<path fill="none" stroke="black" d="M386,-633.597C386,-621.746 386,-605.817 386,-592.292"/>
<polygon fill="black" stroke="black" points="389.5,-592.084 386,-582.084 382.5,-592.084 389.5,-592.084"/>
<text text-anchor="middle" x="395.5" y="-604.3" font-family="Times,serif" font-size="14.00">yes</text>
</g>
<!-- QYYYL -->
<g id="node8" class="node"><title>QYYYL</title>
<path fill="beige" stroke="black" d="M328.25,-494C328.25,-494 159.75,-494 159.75,-494 153.75,-494 147.75,-488 147.75,-482 147.75,-482 147.75,-470 147.75,-470 147.75,-464 153.75,-458 159.75,-458 159.75,-458 328.25,-458 328.25,-458 334.25,-458 340.25,-464 340.25,-470 340.25,-470 340.25,-482 340.25,-482 340.25,-488 334.25,-494 328.25,-494"/>
<text text-anchor="middle" x="244" y="-472.3" font-family="Times,serif" font-size="14.00">What sound system am I using?</text>
</g>
<!-- QYYY&#45;&gt;QYYYL -->
<g id="edge7" class="edge"><title>QYYY&#45;&gt;QYYYL</title>
<path fill="none" stroke="black" d="M357.605,-545.803C335.645,-532.503 305.054,-513.976 281.148,-499.498"/>
<polygon fill="black" stroke="black" points="282.712,-496.354 272.345,-494.167 279.086,-502.341 282.712,-496.354"/>
<text text-anchor="middle" x="344.5" y="-516.3" font-family="Times,serif" font-size="14.00">Linux</text>
</g>
<!-- QYYYO -->
<g id="node12" class="node"><title>QYYYO</title>
<path fill="beige" stroke="black" d="M401,-494C401,-494 371,-494 371,-494 365,-494 359,-488 359,-482 359,-482 359,-470 359,-470 359,-464 365,-458 371,-458 371,-458 401,-458 401,-458 407,-458 413,-464 413,-470 413,-470 413,-482 413,-482 413,-488 407,-494 401,-494"/>
<text text-anchor="middle" x="386" y="-472.3" font-family="Times,serif" font-size="14.00">TODO</text>
</g>
<!-- QYYY&#45;&gt;QYYYO -->
<g id="edge11" class="edge"><title>QYYY&#45;&gt;QYYYO</title>
<path fill="none" stroke="black" d="M386,-545.597C386,-533.746 386,-517.817 386,-504.292"/>
<polygon fill="black" stroke="black" points="389.5,-504.084 386,-494.084 382.5,-504.084 389.5,-504.084"/>
<text text-anchor="middle" x="400.5" y="-516.3" font-family="Times,serif" font-size="14.00">Os X</text>
</g>
<!-- QYYYW -->
<g id="node13" class="node"><title>QYYYW</title>
<path fill="beige" stroke="black" d="M473,-494C473,-494 443,-494 443,-494 437,-494 431,-488 431,-482 431,-482 431,-470 431,-470 431,-464 437,-458 443,-458 443,-458 473,-458 473,-458 479,-458 485,-464 485,-470 485,-470 485,-482 485,-482 485,-488 479,-494 473,-494"/>
<text text-anchor="middle" x="458" y="-472.3" font-family="Times,serif" font-size="14.00">TODO</text>
</g>
<!-- QYYY&#45;&gt;QYYYW -->
<g id="edge12" class="edge"><title>QYYY&#45;&gt;QYYYW</title>
<path fill="none" stroke="black" d="M402.812,-545.878C408.117,-540.29 413.916,-533.982 419,-528 425.857,-519.931 432.996,-510.828 439.263,-502.569"/>
<polygon fill="black" stroke="black" points="442.23,-504.446 445.43,-494.346 436.63,-500.246 442.23,-504.446"/>
<text text-anchor="middle" x="458.5" y="-516.3" font-family="Times,serif" font-size="14.00">Windows</text>
</g>
<!-- QYYYLJ -->
<g id="node9" class="node"><title>QYYYLJ</title>
<path fill="beige" stroke="black" d="M476.25,-406C476.25,-406 11.75,-406 11.75,-406 5.75,-406 -0.25,-400 -0.25,-394 -0.25,-394 -0.25,-382 -0.25,-382 -0.25,-376 5.75,-370 11.75,-370 11.75,-370 476.25,-370 476.25,-370 482.25,-370 488.25,-376 488.25,-382 488.25,-382 488.25,-394 488.25,-394 488.25,-400 482.25,-406 476.25,-406"/>
<text text-anchor="middle" x="244" y="-384.3" font-family="Times,serif" font-size="14.00">When starting jack, do I have an error &#39;jack server is not running or cannot be started&#39;?</text>
</g>
<!-- QYYYL&#45;&gt;QYYYLJ -->
<g id="edge8" class="edge"><title>QYYYL&#45;&gt;QYYYLJ</title>
<path fill="none" stroke="black" d="M244,-457.597C244,-445.746 244,-429.817 244,-416.292"/>
<polygon fill="black" stroke="black" points="247.5,-416.084 244,-406.084 240.5,-416.084 247.5,-416.084"/>
<text text-anchor="middle" x="255.5" y="-428.3" font-family="Times,serif" font-size="14.00">jack</text>
</g>
<!-- QYYYLJY -->
<g id="node10" class="node"><title>QYYYLJY</title>
<path fill="beige" stroke="black" d="M427.25,-318C427.25,-318 60.75,-318 60.75,-318 54.75,-318 48.75,-312 48.75,-306 48.75,-306 48.75,-294 48.75,-294 48.75,-288 54.75,-282 60.75,-282 60.75,-282 427.25,-282 427.25,-282 433.25,-282 439.25,-288 439.25,-294 439.25,-294 439.25,-306 439.25,-306 439.25,-312 433.25,-318 427.25,-318"/>
<text text-anchor="middle" x="244" y="-296.3" font-family="Times,serif" font-size="14.00">When starting Jack, do I have an error &#39;Cannot lock down memory&#39;?</text>
</g>
<!-- QYYYLJ&#45;&gt;QYYYLJY -->
<g id="edge9" class="edge"><title>QYYYLJ&#45;&gt;QYYYLJY</title>
<path fill="none" stroke="black" d="M244,-369.597C244,-357.746 244,-341.817 244,-328.292"/>
<polygon fill="black" stroke="black" points="247.5,-328.084 244,-318.084 240.5,-328.084 247.5,-328.084"/>
<text text-anchor="middle" x="253.5" y="-340.3" font-family="Times,serif" font-size="14.00">yes</text>
</g>
<!-- AYYYLJYY -->
<g id="node11" class="node"><title>AYYYLJYY</title>
<path fill="beige" stroke="black" d="M459.25,-230C459.25,-230 28.75,-230 28.75,-230 22.75,-230 16.75,-224 16.75,-218 16.75,-218 16.75,-174 16.75,-174 16.75,-168 22.75,-162 28.75,-162 28.75,-162 459.25,-162 459.25,-162 465.25,-162 471.25,-168 471.25,-174 471.25,-174 471.25,-218 471.25,-218 471.25,-224 465.25,-230 459.25,-230"/>
<text text-anchor="middle" x="244" y="-214.8" font-family="Times,serif" font-size="14.00">Make sure the file /etc/security/limits.d/audio.conf exists.</text>
<text text-anchor="middle" x="244" y="-199.8" font-family="Times,serif" font-size="14.00">If it is named /etc/security/limits.d/audio.conf.disabled, rename it to the former.</text>
<text text-anchor="middle" x="244" y="-184.8" font-family="Times,serif" font-size="14.00">Aun the command &#39;sudo usermod &#45;a &#45;G audio $USER&#39;</text>
<text text-anchor="middle" x="244" y="-169.8" font-family="Times,serif" font-size="14.00">Then log out and log in again</text>
</g>
<!-- QYYYLJY&#45;&gt;AYYYLJYY -->
<g id="edge10" class="edge"><title>QYYYLJY&#45;&gt;AYYYLJYY</title>
<path fill="none" stroke="black" d="M244,-281.697C244,-270.354 244,-254.986 244,-240.454"/>
<polygon fill="black" stroke="black" points="247.5,-240.09 244,-230.09 240.5,-240.09 247.5,-240.09"/>
<text text-anchor="middle" x="253.5" y="-252.3" font-family="Times,serif" font-size="14.00">yes</text>
</g>
<!-- QNN -->
<g id="node15" class="node"><title>QNN</title>
<path fill="beige" stroke="black" d="M715.5,-670C715.5,-670 572.5,-670 572.5,-670 566.5,-670 560.5,-664 560.5,-658 560.5,-658 560.5,-646 560.5,-646 560.5,-640 566.5,-634 572.5,-634 572.5,-634 715.5,-634 715.5,-634 721.5,-634 727.5,-640 727.5,-646 727.5,-646 727.5,-658 727.5,-658 727.5,-664 721.5,-670 715.5,-670"/>
<text text-anchor="middle" x="644" y="-648.3" font-family="Times,serif" font-size="14.00">Is Ardour&#39;s window frozen?</text>
</g>
<!-- QN&#45;&gt;QNN -->
<g id="edge14" class="edge"><title>QN&#45;&gt;QNN</title>
<path fill="none" stroke="black" d="M644,-721.597C644,-709.746 644,-693.817 644,-680.292"/>
<polygon fill="black" stroke="black" points="647.5,-680.084 644,-670.084 640.5,-680.084 647.5,-680.084"/>
<text text-anchor="middle" x="651" y="-692.3" font-family="Times,serif" font-size="14.00">no</text>
</g>
<!-- QNY -->
<g id="node20" class="node"><title>QNY</title>
<path fill="beige" stroke="black" d="M1115.25,-670C1115.25,-670 906.75,-670 906.75,-670 900.75,-670 894.75,-664 894.75,-658 894.75,-658 894.75,-646 894.75,-646 894.75,-640 900.75,-634 906.75,-634 906.75,-634 1115.25,-634 1115.25,-634 1121.25,-634 1127.25,-640 1127.25,-646 1127.25,-646 1127.25,-658 1127.25,-658 1127.25,-664 1121.25,-670 1115.25,-670"/>
<text text-anchor="middle" x="1011" y="-648.3" font-family="Times,serif" font-size="14.00">Is there any audio/MIDI in the session?</text>
</g>
<!-- QN&#45;&gt;QNY -->
<g id="edge19" class="edge"><title>QN&#45;&gt;QNY</title>
<path fill="none" stroke="black" d="M716.946,-721.906C777.862,-707.632 864.693,-687.284 928.206,-672.401"/>
<polygon fill="black" stroke="black" points="929.254,-675.751 938.192,-670.061 927.657,-668.935 929.254,-675.751"/>
<text text-anchor="middle" x="870.5" y="-692.3" font-family="Times,serif" font-size="14.00">yes</text>
</g>
<!-- QNNY -->
<g id="node16" class="node"><title>QNNY</title>
<path fill="beige" stroke="black" d="M506,-582C506,-582 476,-582 476,-582 470,-582 464,-576 464,-570 464,-570 464,-558 464,-558 464,-552 470,-546 476,-546 476,-546 506,-546 506,-546 512,-546 518,-552 518,-558 518,-558 518,-570 518,-570 518,-576 512,-582 506,-582"/>
<text text-anchor="middle" x="491" y="-560.3" font-family="Times,serif" font-size="14.00">TODO</text>
</g>
<!-- QNN&#45;&gt;QNNY -->
<g id="edge15" class="edge"><title>QNN&#45;&gt;QNNY</title>
<path fill="none" stroke="black" d="M613.406,-633.803C588.521,-619.816 553.353,-600.048 527.093,-585.288"/>
<polygon fill="black" stroke="black" points="528.64,-582.142 518.208,-580.293 525.21,-588.244 528.64,-582.142"/>
<text text-anchor="middle" x="591.5" y="-604.3" font-family="Times,serif" font-size="14.00">yes</text>
</g>
<!-- QNNN -->
<g id="node17" class="node"><title>QNNN</title>
<path fill="beige" stroke="black" d="M888,-582C888,-582 548,-582 548,-582 542,-582 536,-576 536,-570 536,-570 536,-558 536,-558 536,-552 542,-546 548,-546 548,-546 888,-546 888,-546 894,-546 900,-552 900,-558 900,-558 900,-570 900,-570 900,-576 894,-582 888,-582"/>
<text text-anchor="middle" x="718" y="-560.3" font-family="Times,serif" font-size="14.00">In Window &gt; Audio/MIDI setup, is the Audio system stopped?</text>
</g>
<!-- QNN&#45;&gt;QNNN -->
<g id="edge16" class="edge"><title>QNN&#45;&gt;QNNN</title>
<path fill="none" stroke="black" d="M658.975,-633.597C669.778,-621.042 684.519,-603.91 696.567,-589.908"/>
<polygon fill="black" stroke="black" points="699.43,-591.947 703.3,-582.084 694.124,-587.381 699.43,-591.947"/>
<text text-anchor="middle" x="695" y="-604.3" font-family="Times,serif" font-size="14.00">no</text>
</g>
<!-- ANNNY -->
<g id="node18" class="node"><title>ANNNY</title>
<path fill="beige" stroke="black" d="M718,-494C718,-494 604,-494 604,-494 598,-494 592,-488 592,-482 592,-482 592,-470 592,-470 592,-464 598,-458 604,-458 604,-458 718,-458 718,-458 724,-458 730,-464 730,-470 730,-470 730,-482 730,-482 730,-488 724,-494 718,-494"/>
<text text-anchor="middle" x="661" y="-472.3" font-family="Times,serif" font-size="14.00">Start the audio system</text>
</g>
<!-- QNNN&#45;&gt;ANNNY -->
<g id="edge17" class="edge"><title>QNNN&#45;&gt;ANNNY</title>
<path fill="none" stroke="black" d="M706.465,-545.597C698.3,-533.277 687.213,-516.549 678.031,-502.696"/>
<polygon fill="black" stroke="black" points="680.765,-500.486 672.323,-494.084 674.93,-504.353 680.765,-500.486"/>
<text text-anchor="middle" x="704.5" y="-516.3" font-family="Times,serif" font-size="14.00">yes</text>
</g>
<!-- QNNNN -->
<g id="node19" class="node"><title>QNNNN</title>
<path fill="beige" stroke="black" d="M790,-494C790,-494 760,-494 760,-494 754,-494 748,-488 748,-482 748,-482 748,-470 748,-470 748,-464 754,-458 760,-458 760,-458 790,-458 790,-458 796,-458 802,-464 802,-470 802,-470 802,-482 802,-482 802,-488 796,-494 790,-494"/>
<text text-anchor="middle" x="775" y="-472.3" font-family="Times,serif" font-size="14.00">TODO</text>
</g>
<!-- QNNN&#45;&gt;QNNNN -->
<g id="edge18" class="edge"><title>QNNN&#45;&gt;QNNNN</title>
<path fill="none" stroke="black" d="M729.535,-545.597C737.7,-533.277 748.787,-516.549 757.969,-502.696"/>
<polygon fill="black" stroke="black" points="761.07,-504.353 763.677,-494.084 755.235,-500.486 761.07,-504.353"/>
<text text-anchor="middle" x="759" y="-516.3" font-family="Times,serif" font-size="14.00">no</text>
</g>
<!-- ANYN -->
<g id="node21" class="node"><title>ANYN</title>
<path fill="beige" stroke="black" d="M1091.5,-582C1091.5,-582 930.5,-582 930.5,-582 924.5,-582 918.5,-576 918.5,-570 918.5,-570 918.5,-558 918.5,-558 918.5,-552 924.5,-546 930.5,-546 930.5,-546 1091.5,-546 1091.5,-546 1097.5,-546 1103.5,-552 1103.5,-558 1103.5,-558 1103.5,-570 1103.5,-570 1103.5,-576 1097.5,-582 1091.5,-582"/>
<text text-anchor="middle" x="1011" y="-560.3" font-family="Times,serif" font-size="14.00">Add audio/MIDI to the session</text>
</g>
<!-- QNY&#45;&gt;ANYN -->
<g id="edge20" class="edge"><title>QNY&#45;&gt;ANYN</title>
<path fill="none" stroke="black" d="M1011,-633.597C1011,-621.746 1011,-605.817 1011,-592.292"/>
<polygon fill="black" stroke="black" points="1014.5,-592.084 1011,-582.084 1007.5,-592.084 1014.5,-592.084"/>
<text text-anchor="middle" x="1018" y="-604.3" font-family="Times,serif" font-size="14.00">no</text>
</g>
<!-- QNYY -->
<g id="node22" class="node"><title>QNYY</title>
<path fill="beige" stroke="black" d="M1351.5,-582C1351.5,-582 1134.5,-582 1134.5,-582 1128.5,-582 1122.5,-576 1122.5,-570 1122.5,-570 1122.5,-558 1122.5,-558 1122.5,-552 1128.5,-546 1134.5,-546 1134.5,-546 1351.5,-546 1351.5,-546 1357.5,-546 1363.5,-552 1363.5,-558 1363.5,-558 1363.5,-570 1363.5,-570 1363.5,-576 1357.5,-582 1351.5,-582"/>
<text text-anchor="middle" x="1243" y="-560.3" font-family="Times,serif" font-size="14.00">In the mixer, is any track meter moving?</text>
</g>
<!-- QNY&#45;&gt;QNYY -->
<g id="edge21" class="edge"><title>QNY&#45;&gt;QNYY</title>
<path fill="none" stroke="black" d="M1057.11,-633.906C1094.59,-620.014 1147.59,-600.369 1187.41,-585.607"/>
<polygon fill="black" stroke="black" points="1188.81,-588.819 1196.97,-582.061 1186.38,-582.255 1188.81,-588.819"/>
<text text-anchor="middle" x="1157.5" y="-604.3" font-family="Times,serif" font-size="14.00">yes</text>
</g>
<!-- QNYYY -->
<g id="node23" class="node"><title>QNYYY</title>
<path fill="beige" stroke="black" d="M1258.25,-494C1258.25,-494 1081.75,-494 1081.75,-494 1075.75,-494 1069.75,-488 1069.75,-482 1069.75,-482 1069.75,-470 1069.75,-470 1069.75,-464 1075.75,-458 1081.75,-458 1081.75,-458 1258.25,-458 1258.25,-458 1264.25,-458 1270.25,-464 1270.25,-470 1270.25,-470 1270.25,-482 1270.25,-482 1270.25,-488 1264.25,-494 1258.25,-494"/>
<text text-anchor="middle" x="1170" y="-472.3" font-family="Times,serif" font-size="14.00">Is this track connected to Master?</text>
</g>
<!-- QNYY&#45;&gt;QNYYY -->
<g id="edge22" class="edge"><title>QNYY&#45;&gt;QNYYY</title>
<path fill="none" stroke="black" d="M1228.23,-545.597C1217.57,-533.042 1203.03,-515.91 1191.14,-501.908"/>
<polygon fill="black" stroke="black" points="1193.64,-499.443 1184.5,-494.084 1188.3,-503.973 1193.64,-499.443"/>
<text text-anchor="middle" x="1223.5" y="-516.3" font-family="Times,serif" font-size="14.00">yes</text>
</g>
<!-- QNYYN -->
<g id="node32" class="node"><title>QNYYN</title>
<path fill="beige" stroke="black" d="M1533.25,-494C1533.25,-494 1300.75,-494 1300.75,-494 1294.75,-494 1288.75,-488 1288.75,-482 1288.75,-482 1288.75,-470 1288.75,-470 1288.75,-464 1294.75,-458 1300.75,-458 1300.75,-458 1533.25,-458 1533.25,-458 1539.25,-458 1545.25,-464 1545.25,-470 1545.25,-470 1545.25,-482 1545.25,-482 1545.25,-488 1539.25,-494 1533.25,-494"/>
<text text-anchor="middle" x="1417" y="-472.3" font-family="Times,serif" font-size="14.00">Is a track having audio content rec&#45;enabled?</text>
</g>
<!-- QNYY&#45;&gt;QNYYN -->
<g id="edge32" class="edge"><title>QNYY&#45;&gt;QNYYN</title>
<path fill="none" stroke="black" d="M1277.79,-545.803C1305.27,-532.224 1343.76,-513.198 1373.31,-498.594"/>
<polygon fill="black" stroke="black" points="1375.15,-501.589 1382.56,-494.02 1372.05,-495.313 1375.15,-501.589"/>
<text text-anchor="middle" x="1353" y="-516.3" font-family="Times,serif" font-size="14.00">no</text>
</g>
<!-- ANYYYN -->
<g id="node24" class="node"><title>ANYYYN</title>
<path fill="beige" stroke="black" d="M1105.25,-406C1105.25,-406 922.75,-406 922.75,-406 916.75,-406 910.75,-400 910.75,-394 910.75,-394 910.75,-382 910.75,-382 910.75,-376 916.75,-370 922.75,-370 922.75,-370 1105.25,-370 1105.25,-370 1111.25,-370 1117.25,-376 1117.25,-382 1117.25,-382 1117.25,-394 1117.25,-394 1117.25,-400 1111.25,-406 1105.25,-406"/>
<text text-anchor="middle" x="1014" y="-384.3" font-family="Times,serif" font-size="14.00">Connect the track output to Master</text>
</g>
<!-- QNYYY&#45;&gt;ANYYYN -->
<g id="edge23" class="edge"><title>QNYYY&#45;&gt;ANYYYN</title>
<path fill="none" stroke="black" d="M1138.81,-457.803C1114.39,-444.342 1080.26,-425.527 1053.86,-410.974"/>
<polygon fill="black" stroke="black" points="1055.32,-407.783 1044.87,-406.02 1051.94,-413.913 1055.32,-407.783"/>
<text text-anchor="middle" x="1113" y="-428.3" font-family="Times,serif" font-size="14.00">no</text>
</g>
<!-- QNYYYY -->
<g id="node25" class="node"><title>QNYYYY</title>
<path fill="beige" stroke="black" d="M1242.25,-406C1242.25,-406 1147.75,-406 1147.75,-406 1141.75,-406 1135.75,-400 1135.75,-394 1135.75,-394 1135.75,-382 1135.75,-382 1135.75,-376 1141.75,-370 1147.75,-370 1147.75,-370 1242.25,-370 1242.25,-370 1248.25,-370 1254.25,-376 1254.25,-382 1254.25,-382 1254.25,-394 1254.25,-394 1254.25,-400 1248.25,-406 1242.25,-406"/>
<text text-anchor="middle" x="1195" y="-384.3" font-family="Times,serif" font-size="14.00">Is this track muted</text>
</g>
<!-- QNYYY&#45;&gt;QNYYYY -->
<g id="edge24" class="edge"><title>QNYYY&#45;&gt;QNYYYY</title>
<path fill="none" stroke="black" d="M1175.06,-457.597C1178.54,-445.629 1183.23,-429.501 1187.18,-415.891"/>
<polygon fill="black" stroke="black" points="1190.6,-416.664 1190.03,-406.084 1183.88,-414.709 1190.6,-416.664"/>
<text text-anchor="middle" x="1194.5" y="-428.3" font-family="Times,serif" font-size="14.00">yes</text>
</g>
<!-- ANYYYYY -->
<g id="node26" class="node"><title>ANYYYYY</title>
<path fill="beige" stroke="black" d="M1121.25,-318C1121.25,-318 1030.75,-318 1030.75,-318 1024.75,-318 1018.75,-312 1018.75,-306 1018.75,-306 1018.75,-294 1018.75,-294 1018.75,-288 1024.75,-282 1030.75,-282 1030.75,-282 1121.25,-282 1121.25,-282 1127.25,-282 1133.25,-288 1133.25,-294 1133.25,-294 1133.25,-306 1133.25,-306 1133.25,-312 1127.25,-318 1121.25,-318"/>
<text text-anchor="middle" x="1076" y="-296.3" font-family="Times,serif" font-size="14.00">Unmute this track</text>
</g>
<!-- QNYYYY&#45;&gt;ANYYYYY -->
<g id="edge25" class="edge"><title>QNYYYY&#45;&gt;ANYYYYY</title>
<path fill="none" stroke="black" d="M1171.2,-369.803C1153.04,-356.679 1127.84,-338.465 1107.93,-324.074"/>
<polygon fill="black" stroke="black" points="1109.91,-321.188 1099.75,-318.167 1105.81,-326.861 1109.91,-321.188"/>
<text text-anchor="middle" x="1156.5" y="-340.3" font-family="Times,serif" font-size="14.00">yes</text>
</g>
<!-- QNYYYYN -->
<g id="node27" class="node"><title>QNYYYYN</title>
<path fill="beige" stroke="black" d="M1332,-318C1332,-318 1164,-318 1164,-318 1158,-318 1152,-312 1152,-306 1152,-306 1152,-294 1152,-294 1152,-288 1158,-282 1164,-282 1164,-282 1332,-282 1332,-282 1338,-282 1344,-288 1344,-294 1344,-294 1344,-306 1344,-306 1344,-312 1338,-318 1332,-318"/>
<text text-anchor="middle" x="1248" y="-296.3" font-family="Times,serif" font-size="14.00">Is the SOLO indicator blinking?</text>
</g>
<!-- QNYYYY&#45;&gt;QNYYYYN -->
<g id="edge26" class="edge"><title>QNYYYY&#45;&gt;QNYYYYN</title>
<path fill="none" stroke="black" d="M1205.73,-369.597C1213.32,-357.277 1223.63,-340.549 1232.16,-326.696"/>
<polygon fill="black" stroke="black" points="1235.2,-328.433 1237.47,-318.084 1229.25,-324.761 1235.2,-328.433"/>
<text text-anchor="middle" x="1234" y="-340.3" font-family="Times,serif" font-size="14.00">no</text>
</g>
<!-- ANYYYYNY -->
<g id="node28" class="node"><title>ANYYYYNY</title>
<path fill="beige" stroke="black" d="M1175.25,-214C1175.25,-214 1042.75,-214 1042.75,-214 1036.75,-214 1030.75,-208 1030.75,-202 1030.75,-202 1030.75,-190 1030.75,-190 1030.75,-184 1036.75,-178 1042.75,-178 1042.75,-178 1175.25,-178 1175.25,-178 1181.25,-178 1187.25,-184 1187.25,-190 1187.25,-190 1187.25,-202 1187.25,-202 1187.25,-208 1181.25,-214 1175.25,-214"/>
<text text-anchor="middle" x="1109" y="-192.3" font-family="Times,serif" font-size="14.00">Click the SOLO indicator</text>
</g>
<!-- QNYYYYN&#45;&gt;ANYYYYNY -->
<g id="edge27" class="edge"><title>QNYYYYN&#45;&gt;ANYYYYNY</title>
<path fill="none" stroke="black" d="M1224.73,-281.927C1201.68,-265.011 1166.21,-238.981 1140.61,-220.197"/>
<polygon fill="black" stroke="black" points="1142.47,-217.223 1132.34,-214.128 1138.33,-222.866 1142.47,-217.223"/>
<text text-anchor="middle" x="1209.5" y="-252.3" font-family="Times,serif" font-size="14.00">yes</text>
</g>
<!-- QNYYYYNN -->
<g id="node29" class="node"><title>QNYYYYNN</title>
<path fill="beige" stroke="black" d="M1420.25,-214C1420.25,-214 1217.75,-214 1217.75,-214 1211.75,-214 1205.75,-208 1205.75,-202 1205.75,-202 1205.75,-190 1205.75,-190 1205.75,-184 1211.75,-178 1217.75,-178 1217.75,-178 1420.25,-178 1420.25,-178 1426.25,-178 1432.25,-184 1432.25,-190 1432.25,-190 1432.25,-202 1432.25,-202 1432.25,-208 1426.25,-214 1420.25,-214"/>
<text text-anchor="middle" x="1319" y="-192.3" font-family="Times,serif" font-size="14.00">Is the gain slider for this track grayed?</text>
</g>
<!-- QNYYYYN&#45;&gt;QNYYYYNN -->
<g id="edge28" class="edge"><title>QNYYYYN&#45;&gt;QNYYYYNN</title>
<path fill="none" stroke="black" d="M1260.04,-281.697C1271.38,-265.407 1288.5,-240.814 1301.38,-222.319"/>
<polygon fill="black" stroke="black" points="1304.29,-224.254 1307.13,-214.047 1298.55,-220.255 1304.29,-224.254"/>
<text text-anchor="middle" x="1291" y="-252.3" font-family="Times,serif" font-size="14.00">no</text>
</g>
<!-- ANYYYYNNY -->
<g id="node30" class="node"><title>ANYYYYNNY</title>
<path fill="beige" stroke="black" d="M1319.25,-110C1319.25,-110 1220.75,-110 1220.75,-110 1214.75,-110 1208.75,-104 1208.75,-98 1208.75,-98 1208.75,-86 1208.75,-86 1208.75,-80 1214.75,-74 1220.75,-74 1220.75,-74 1319.25,-74 1319.25,-74 1325.25,-74 1331.25,-80 1331.25,-86 1331.25,-86 1331.25,-98 1331.25,-98 1331.25,-104 1325.25,-110 1319.25,-110"/>
<text text-anchor="middle" x="1270" y="-88.3" font-family="Times,serif" font-size="14.00">Disable automation</text>
</g>
<!-- QNYYYYNN&#45;&gt;ANYYYYNNY -->
<g id="edge29" class="edge"><title>QNYYYYNN&#45;&gt;ANYYYYNNY</title>
<path fill="none" stroke="black" d="M1310.69,-177.697C1302.97,-161.628 1291.37,-137.48 1282.53,-119.075"/>
<polygon fill="black" stroke="black" points="1285.67,-117.546 1278.19,-110.047 1279.36,-120.577 1285.67,-117.546"/>
<text text-anchor="middle" x="1304.5" y="-132.3" font-family="Times,serif" font-size="14.00">yes</text>
</g>
<!-- ANYYYYNNN -->
<g id="node31" class="node"><title>ANYYYYNNN</title>
<path fill="beige" stroke="black" d="M1415,-36C1415,-36 1259,-36 1259,-36 1253,-36 1247,-30 1247,-24 1247,-24 1247,-12 1247,-12 1247,-6 1253,-0 1259,-0 1259,-0 1415,-0 1415,-0 1421,-0 1427,-6 1427,-12 1427,-12 1427,-24 1427,-24 1427,-30 1421,-36 1415,-36"/>
<text text-anchor="middle" x="1337" y="-14.3" font-family="Times,serif" font-size="14.00">Increase the gain on this track</text>
</g>
<!-- QNYYYYNN&#45;&gt;ANYYYYNNN -->
<g id="edge30" class="edge"><title>QNYYYYNN&#45;&gt;ANYYYYNNN</title>
<path fill="none" stroke="black" d="M1324.5,-177.971C1329.69,-160.971 1337.08,-133.992 1340,-110 1341.93,-94.1172 1340.44,-89.9941 1340,-74 1339.76,-65.0292 1339.29,-55.2446 1338.79,-46.4482"/>
<polygon fill="black" stroke="black" points="1342.28,-46.1035 1338.19,-36.3299 1335.29,-46.5208 1342.28,-46.1035"/>
<text text-anchor="middle" x="1348" y="-88.3" font-family="Times,serif" font-size="14.00">no</text>
</g>
<!-- ANYYYYNNY&#45;&gt;ANYYYYNNN -->
<g id="edge31" class="edge"><title>ANYYYYNNY&#45;&gt;ANYYYYNNN</title>
<path fill="none" stroke="black" d="M1285.88,-73.937C1294.18,-65.0119 1304.51,-53.9159 1313.7,-44.0373"/>
<polygon fill="black" stroke="black" points="1316.52,-46.1457 1320.77,-36.4407 1311.4,-41.3771 1316.52,-46.1457"/>
</g>
<!-- ANYYNY -->
<g id="node33" class="node"><title>ANYYNY</title>
<path fill="beige" stroke="black" d="M1475.25,-406C1475.25,-406 1310.75,-406 1310.75,-406 1304.75,-406 1298.75,-400 1298.75,-394 1298.75,-394 1298.75,-382 1298.75,-382 1298.75,-376 1304.75,-370 1310.75,-370 1310.75,-370 1475.25,-370 1475.25,-370 1481.25,-370 1487.25,-376 1487.25,-382 1487.25,-382 1487.25,-394 1487.25,-394 1487.25,-400 1481.25,-406 1475.25,-406"/>
<text text-anchor="middle" x="1393" y="-384.3" font-family="Times,serif" font-size="14.00">Disable rec&#45;enable on this track</text>
</g>
<!-- QNYYN&#45;&gt;ANYYNY -->
<g id="edge33" class="edge"><title>QNYYN&#45;&gt;ANYYNY</title>
<path fill="none" stroke="black" d="M1406.56,-457.715C1403.67,-452.224 1400.83,-446.013 1399,-440 1396.71,-432.496 1395.29,-424.125 1394.4,-416.369"/>
<polygon fill="black" stroke="black" points="1397.88,-415.962 1393.5,-406.314 1390.91,-416.586 1397.88,-415.962"/>
<text text-anchor="middle" x="1408.5" y="-428.3" font-family="Times,serif" font-size="14.00">yes</text>
</g>
<!-- QNYYNN -->
<g id="node34" class="node"><title>QNYYNN</title>
<path fill="beige" stroke="black" d="M1616,-406C1616,-406 1518,-406 1518,-406 1512,-406 1506,-400 1506,-394 1506,-394 1506,-382 1506,-382 1506,-376 1512,-370 1518,-370 1518,-370 1616,-370 1616,-370 1622,-370 1628,-376 1628,-382 1628,-382 1628,-394 1628,-394 1628,-400 1622,-406 1616,-406"/>
<text text-anchor="middle" x="1567" y="-384.3" font-family="Times,serif" font-size="14.00">Is this track active?</text>
</g>
<!-- QNYYN&#45;&gt;QNYYNN -->
<g id="edge34" class="edge"><title>QNYYN&#45;&gt;QNYYNN</title>
<path fill="none" stroke="black" d="M1446.99,-457.803C1470.37,-444.401 1503,-425.691 1528.34,-411.165"/>
<polygon fill="black" stroke="black" points="1530.38,-414.03 1537.31,-406.02 1526.9,-407.958 1530.38,-414.03"/>
<text text-anchor="middle" x="1512" y="-428.3" font-family="Times,serif" font-size="14.00">no</text>
</g>
<!-- ANYYNNN -->
<g id="node35" class="node"><title>ANYYNNN</title>
<path fill="beige" stroke="black" d="M1585.5,-318C1585.5,-318 1494.5,-318 1494.5,-318 1488.5,-318 1482.5,-312 1482.5,-306 1482.5,-306 1482.5,-294 1482.5,-294 1482.5,-288 1488.5,-282 1494.5,-282 1494.5,-282 1585.5,-282 1585.5,-282 1591.5,-282 1597.5,-288 1597.5,-294 1597.5,-294 1597.5,-306 1597.5,-306 1597.5,-312 1591.5,-318 1585.5,-318"/>
<text text-anchor="middle" x="1540" y="-296.3" font-family="Times,serif" font-size="14.00">Activate this track</text>
</g>
<!-- QNYYNN&#45;&gt;ANYYNNN -->
<g id="edge35" class="edge"><title>QNYYNN&#45;&gt;ANYYNNN</title>
<path fill="none" stroke="black" d="M1561.54,-369.597C1557.78,-357.629 1552.72,-341.501 1548.44,-327.891"/>
<polygon fill="black" stroke="black" points="1551.7,-326.576 1545.36,-318.084 1545.02,-328.673 1551.7,-326.576"/>
<text text-anchor="middle" x="1562" y="-340.3" font-family="Times,serif" font-size="14.00">no</text>
</g>
<!-- QNYYNNY -->
<g id="node36" class="node"><title>QNYYNNY</title>
<path fill="beige" stroke="black" d="M1799.5,-318C1799.5,-318 1628.5,-318 1628.5,-318 1622.5,-318 1616.5,-312 1616.5,-306 1616.5,-306 1616.5,-294 1616.5,-294 1616.5,-288 1622.5,-282 1628.5,-282 1628.5,-282 1799.5,-282 1799.5,-282 1805.5,-282 1811.5,-288 1811.5,-294 1811.5,-294 1811.5,-306 1811.5,-306 1811.5,-312 1805.5,-318 1799.5,-318"/>
<text text-anchor="middle" x="1714" y="-296.3" font-family="Times,serif" font-size="14.00">Is there any plugin on this track?</text>
</g>
<!-- QNYYNN&#45;&gt;QNYYNNY -->
<g id="edge36" class="edge"><title>QNYYNN&#45;&gt;QNYYNNY</title>
<path fill="none" stroke="black" d="M1596.39,-369.803C1619.3,-356.401 1651.28,-337.691 1676.11,-323.165"/>
<polygon fill="black" stroke="black" points="1678.04,-326.091 1684.91,-318.02 1674.51,-320.049 1678.04,-326.091"/>
<text text-anchor="middle" x="1662.5" y="-340.3" font-family="Times,serif" font-size="14.00">yes</text>
</g>
<!-- ANYYNNYY -->
<g id="node37" class="node"><title>ANYYNNYY</title>
<path fill="beige" stroke="black" d="M1732,-214C1732,-214 1546,-214 1546,-214 1540,-214 1534,-208 1534,-202 1534,-202 1534,-190 1534,-190 1534,-184 1540,-178 1546,-178 1546,-178 1732,-178 1732,-178 1738,-178 1744,-184 1744,-190 1744,-190 1744,-202 1744,-202 1744,-208 1738,-214 1732,-214"/>
<text text-anchor="middle" x="1639" y="-192.3" font-family="Times,serif" font-size="14.00">Disable all the plugins on this track</text>
</g>
<!-- QNYYNNY&#45;&gt;ANYYNNYY -->
<g id="edge37" class="edge"><title>QNYYNNY&#45;&gt;ANYYNNYY</title>
<path fill="none" stroke="black" d="M1701.28,-281.697C1689.3,-265.407 1671.22,-240.814 1657.62,-222.319"/>
<polygon fill="black" stroke="black" points="1660.28,-220.031 1651.53,-214.047 1654.64,-224.177 1660.28,-220.031"/>
<text text-anchor="middle" x="1696.5" y="-252.3" font-family="Times,serif" font-size="14.00">yes</text>
</g>
<!-- QNYYNNYN -->
<g id="node38" class="node"><title>QNYYNNYN</title>
<path fill="beige" stroke="black" d="M1804,-214C1804,-214 1774,-214 1774,-214 1768,-214 1762,-208 1762,-202 1762,-202 1762,-190 1762,-190 1762,-184 1768,-178 1774,-178 1774,-178 1804,-178 1804,-178 1810,-178 1816,-184 1816,-190 1816,-190 1816,-202 1816,-202 1816,-208 1810,-214 1804,-214"/>
<text text-anchor="middle" x="1789" y="-192.3" font-family="Times,serif" font-size="14.00">TODO</text>
</g>
<!-- QNYYNNY&#45;&gt;QNYYNNYN -->
<g id="edge38" class="edge"><title>QNYYNNY&#45;&gt;QNYYNNYN</title>
<path fill="none" stroke="black" d="M1726.72,-281.697C1738.7,-265.407 1756.78,-240.814 1770.38,-222.319"/>
<polygon fill="black" stroke="black" points="1773.36,-224.177 1776.47,-214.047 1767.72,-220.031 1773.36,-224.177"/>
<text text-anchor="middle" x="1758" y="-252.3" font-family="Times,serif" font-size="14.00">no</text>
</g>
</g>
</svg>
